<svg xmlns="http://www.w3.org/2000/svg" xmlns:xlink="http://www.w3.org/1999/xlink"><symbol fill="currentColor" viewBox="0 0 60 60" id="application"><path d="M36.5 59.5H8a1 1 0 0 1-1-1v-52a1 1 0 0 1 1-1h2.5m26 54v-10a1 1 0 0 1 1-1H48m-11.5 11 11.5-11m-11.5 11H52a1 1 0 0 0 1-1V9a1 1 0 0 0-1-1h-4m0 40.5V8m0 0V6.5a1 1 0 0 0-1-1H20m-9.5 0c.167-1.5 1.4-4.5 5-4.5S20 4 20 5.5m-9.5 0H20m0 0v7.167c0 1.166-.1 2.833-2.5 2.833S15 14 15 12.667V8.5m-1.5 13h27m-27 5.5h27m-27 5H34m-20.5 5H31m-17.5 5H31"/></symbol><symbol fill="currentColor" viewBox="0 0 15 15" id="arrow"><path d="M1 7.5h13m-13 0L7.74 1M1 7.5 7.74 14"/></symbol><symbol fill="currentColor" viewBox="0 0 14 15" id="arrow-breadcrumb"><path d="M12.832 7.792H1.165m11.667 0L8.9 4m3.932 3.792L8.9 11.583" stroke="#42515A" stroke-linecap="round" stroke-linejoin="round"/></symbol><symbol fill="currentColor" viewBox="0 0 16 17" id="arrow-right"><path d="M14.667 8.833H1.333m13.334 0L10.173 4.5m4.494 4.333-4.494 4.334"/></symbol><symbol fill="currentColor" viewBox="0 0 16 17" id="arrowDown"><path d="m3.429 5.5 4.8 4.8 4.8-4.8"/></symbol><symbol fill="currentColor" viewBox="0 0 60 60" id="attention"><path d="M30 58.242a5.648 5.648 0 1 0 0-11.297 5.648 5.648 0 0 0 0 11.297ZM26.689 36.632a3.361 3.361 0 0 0 3.31 2.782H30a3.36 3.36 0 0 0 3.31-2.782l4.481-25.603a7.909 7.909 0 0 0-7.789-9.271h-.005a7.908 7.908 0 0 0-7.789 9.27c1.472 8.408 3.549 20.275 4.48 25.604Z"/></symbol><symbol fill="currentColor" viewBox="0 0 41 41" id="belarus"><g clip-path="url(#aga)"><path d="M39.976 33.603H1.356a.69.69 0 0 1-.69-.69v-6.206h40v6.207a.69.69 0 0 1-.69.69Z"/><path d="M39.976 7.396H1.356a.69.69 0 0 0-.69.69v18.62h40V8.087a.69.69 0 0 0-.69-.69Z"/><path d="M6.183 33.603H1.356a.69.69 0 0 1-.69-.69V8.087c0-.38.309-.69.69-.69h4.827v26.207Z"/><path d="M1.355 32.458H1.6v-.684h-.244v.684Zm1.947 0h.244v-.684h-.244v.684Zm1.948 0h.243v-.684H5.25v.684Zm-2.92-1.833h.242v-.57H2.33v.57Zm1.948 0h.243v-.57h-.243v.57ZM1.355 29.14H1.6v-.683h-.244v.683Zm1.947 0h.244v-.683h-.244v.683Zm1.948 0h.243v-.683H5.25v.683Zm-3.405.916h.241v-.574h.244v-.57h.242v.57h.245v.574h.241v.57h-.241v.575h-.245v.574H2.33V31.2h-.244v-.575h-.241v-.57Zm1.946 0h.244v-.574h.243v-.57h.243v.57h.243v.574h.244v.57h-.244v.575H4.52v.574h-.243V31.2h-.243v-.575h-.244v-.57Zm.487-2.288v.57h-.245v.574H3.79v.57h-.245v.575h-.244v-.575h-.244v-.57h-.241v-.574H2.57v-.57H2.33v.57h-.244v.574h-.241v.57h-.246v.575h-.244v.57H1.6v.574h.246v.574h.241v.57h.244v.57h.244v-.57h.243v-.57h.241V31.2h.244v-.575h.244v.575h.245v.574h.244v.57h.243v.57h.243v-.57h.243v-.57h.244V31.2h.244v-.575h.241v-.57H5.25v-.574h-.242v-.57h-.244v-.574H4.52v-.57h-.243Zm.603-.57h.122v-.227h.122v.227h.123v.228h-.123v.233h-.122v-.233H4.88v-.228Zm0-.797v.337h-.12v.346h-.123v.456h.123v.342h.12v.342h.367v-.342h.121v-.342h.12v-.456h-.12v-.346h-.121V26.4H4.88Zm-3.282.792h.123v-.227h.123v.227h.118v.233h-.118v.228h-.123v-.228h-.123v-.233Zm0-.797v.342h-.121v.341h-.123v.461h.123v.342h.121v.341h.364v-.341h.123v-.342h.119v-.46h-.119v-.342h-.123v-.342H1.6Zm1.339.797h.12v-.227h.124v.227h.12v.233h-.12v.228h-.124v-.228h-.12v-.233Zm.608 0h.123v-.227h.122v.227h.12v.233h-.12v.228H3.67v-.228h-.123v-.233Zm0-.797v.342h-.244v-.342h-.364v.342h-.121v.341h-.123v.461h.123v.342h.121v.341h.364v-.341h.244v.341h.365v-.341h.124v-.342h.12v-.46h-.12v-.342h-.124v-.342h-.365Zm-2.19-.233h.243v-.684h-.244v.684Zm1.946 0h.244v-.684h-.244v.684Zm1.948 0h.243v-.684H5.25v.684Zm-3.895-2.858H1.6v-.456h-.244v.456Zm3.895 0h.243v-.456H5.25v.456Zm-1.948-1.6h.244v-.57h-.244v.57Zm-1.947-1.546V20.847H1.6V20.158h-.244Zm1.34 0V20.847h.243V20.158h-.244Zm1.216 0V20.847h.243V20.158h-.243Zm1.34 0V20.847h.242V20.158H5.25Zm-1.582-.401v.228h-.123v.173h-.244v-.173h-.12v-.228h-.244v.342h.12v.173h.124v.456h-.124v.173h-.12v.342h.244v-.228h.12v-.168h.244v.168h.123v.228h.242V20.9h-.12v-.173H3.67v-.456h.122V20.1h.12v-.342H3.67Zm-.367.114h.244v-.57h-.244v.57Zm-1.947-1.714H1.6V17.7h-.244v.456Zm3.895 0h.243V17.7H5.25v.456Zm-3.895-2.63H1.6v-.689h-.244v.689Zm1.947 0h.244v-.689h-.244v.689Zm1.948 0h.243v-.689H5.25v.689ZM2.33 20.51v-.238h.242v-.396h.245v-.461h.365v-.54h.12v-.262h.244v.257h.123v.545h.366v.461h.243v.396h.243v.456h-.243v.406h-.243v.456H3.67v.54h-.123v.257h-.244v-.258h-.12v-.54h-.365v-.455h-.245v-.406H2.33v-.218Zm1.948-6.36v.574h-.245v.57H3.79v.574h-.245V16.438h-.244v-.57h-.244v-.574h-.241v-.57H2.57v-.575H2.33v.575h-.244v.57h-.244v.574h-.243V16.438h-.244v.575H1.6v.574h.243v.57h.244v.57h.244v-.57h.242v-.57h.245v-.575h-.245v-.688h.245V16.785h.241v.916h.124v.565l-.365.005v.456h-.245v.341H2.33v.575h-.244v-.575h-.244v-.341H1.6v-.342h-.244v1.03H1.6v.46h.243v.397h.244v.456h-.244v.406H1.6v.456h-.244v1.03H1.6v-.347h.243v-.341h.244v-.57h.244v.57h.242v.341h.245v.461l.365.005v.565h-.124v.916h-.241v.461H2.57v-.694h.246v-.57H2.57v-.57H2.33v-.574h-.244v.575h-.244v.57h-.243v.57h-.244v.574H1.6v.569h.246v.575h.241v.575h.244v.57h.242v-.57h.245v-.575h.241v-.575h.244v-.57h.244V25.132h.245v.575h.244v.575h.243v.57h.243v-.57h.243v-.575h.244v-.575h.242v-.57h.243v-.574H5.25v-.57h-.242v-.57h-.244v-.574H4.52v.575h-.243v.57h-.245v.57h.245v.693h-.245v-.46h-.242v-.917H3.67v-.57h.366v-.46h.243v-.343h.243v-.57h.243v.57h.244v.342h.244v.347h.241v-1.03h-.242v-.456h-.244v-.406h-.243v-.456h.244v-.396h.243v-.46h.242v-1.031h-.242v.342h-.244v.341h-.243v.575H4.52v-.575h-.243v-.341h-.243v-.456H3.67v-.57h.122v-.916h.242V16.324h.245v.689h-.245v.574h.245v.57h.243v.57h.243v-.57h.243v-.57h.243v-.575h.243v-.574H5.25v-.57h-.242v-.575h-.244v-.57H4.52v-.574h-.243Zm-2.679-.57h.12v-.228h.126v.228h.118v.228h-.118v.232H1.72v-.232H1.6v-.228Zm0-.46h-.121v.346h-.123v.456h.123v.346h.121v.342h.364v-.342h.123v-.346h.119v-.456h-.119v-.347h-.123v-.337H1.6v.337Zm1.339.46h.12v-.228h.124v.228h.12v.228h-.12v.232h-.124v-.232h-.12v-.228Zm.608 0h.123v-.228h.122v.228h.12v.228h-.12v.232H3.67v-.232h-.123v-.228Zm-.608-.46h-.121v.346h-.123v.456h.123v.346h.121v.342h.364v-.342h.244v.342h.365v-.342h.124v-.346h.12v-.456h-.12v-.347h-.124v-.337h-.365v.337h-.244v-.337h-.364v.337Zm1.943.455h.122v-.223h.122v.223h.123v.233h-.123v.227h-.122v-.227H4.88v-.233Zm0-.798v.342h-.12v.347h-.123v.456h.123v.341h.12v.342h.367v-.342h.121v-.341h.12v-.456h-.12v-.347h-.121v-.342H4.88Zm-3.526-.227H1.6v-.684h-.244v.684Zm1.947 0h.244v-.684h-.244v.684Zm1.948 0h.243v-.684H5.25v.684Zm-2.92-1.6h.242v-.575H2.33v.575Zm1.948 0h.243v-.575h-.243v.575ZM1.355 9.23H1.6v-.683h-.244v.684Zm1.947 0h.244v-.683h-.244v.684Zm1.948 0h.243v-.683H5.25v.684Zm-3.405 1.145h.241v-.57h.244v-.574h.242v.574h.245v.57h.241v.575h-.241v.57h-.245v.574H2.33v-.575h-.244v-.57h-.241v-.574Zm1.946 0h.244v-.57h.243v-.574h.243v.574h.243v.57h.244v.575h-.244v.57H4.52v.574h-.243v-.575h-.243v-.57h-.244v-.574Zm.487-2.289v.575h-.243v.57h-.244v.574h-.245v.57h-.244v-.57h-.244v-.574h-.241v-.57h-.243v-.575H2.33v.575h-.244v.57h-.241v.574h-.246v.57h-.244v.575H1.6v.57h.246v.574h.241v.574h.244v.57h.242v-.57h.245v-.574h.241v-.575h.244v-.57h.244v.57h.245v.575h.242v.574h.245v.57h.243v-.57h.243v-.574h.244v-.575h.242v-.57h.243v-.574h-.242v-.57h-.244v-.574h-.243v-.57H4.52v-.575h-.243Z"/></g><defs><clipPath id="aga"><path transform="translate(.666 .5)" d="M0 0h40v40H0z"/></clipPath></defs></symbol><symbol fill="currentColor" viewBox="0 0 20 20" id="calendar1"><path d="M15.833 3.332H4.167c-.92 0-1.667.746-1.667 1.667v11.666c0 .92.746 1.667 1.667 1.667h11.666c.92 0 1.667-.746 1.667-1.667V5c0-.92-.746-1.667-1.667-1.667ZM13.332 1.668v3.333M6.668 1.668v3.333M2.5 8.332h15"/></symbol><symbol fill="currentColor" viewBox="0 0 24 24" id="close"><path d="M22 22 2 2m0 20L22 2" stroke="#0A91D1" stroke-width="1.5" stroke-linecap="round"/></symbol><symbol fill="currentColor" viewBox="0 0 24 24" id="close2"><path fill-rule="evenodd" clip-rule="evenodd" d="M19.85 5.707 5.706 19.85 5 19.142 19.142 5l.707.707Z"/><path fill-rule="evenodd" clip-rule="evenodd" d="M5.85 5 19.99 19.142l-.707.707L5.142 5.707 5.85 5Z"/></symbol><symbol fill="currentColor" viewBox="0 0 28 28" id="compare"><path d="M4.2 25.2V12.038M10.621 25.2V2.8M17.046 25.2v-6.958M23.467 25.2V10.215"/></symbol><symbol fill="currentColor" viewBox="0 0 20 20" id="delete"><path d="M2.5 5h15M15.835 5v11.667a1.667 1.667 0 0 1-1.667 1.666H5.835a1.667 1.667 0 0 1-1.667-1.666V5m2.5 0V3.333a1.667 1.667 0 0 1 1.667-1.666h3.333a1.667 1.667 0 0 1 1.667 1.666V5M8.332 9.167v5M11.668 9.167v5"/></symbol><symbol fill="currentColor" viewBox="0 0 24 24" id="diminutive-glass"><path d="M10.798 19.198a8.4 8.4 0 1 0 0-16.8 8.4 8.4 0 0 0 0 16.8ZM22.799 22.801l-5.998-6M6 10.8h9.6"/></symbol><symbol fill="currentColor" viewBox="0 0 20 20" id="filter"><path d="M18.333 2.5H1.667l6.666 7.883v5.45l3.333 1.667v-7.117L18.334 2.5Z" stroke="#0A91D1" stroke-linecap="round" stroke-linejoin="round"/></symbol><symbol fill="currentColor" viewBox="0 0 60 56" id="graph"><path d="M58.75 53H57.5V16.75c0-.69-.56-1.25-1.25-1.25h-7.5c-.691 0-1.25.56-1.25 1.25V53h-5V26.75c0-.69-.56-1.25-1.25-1.25h-7.5c-.691 0-1.25.56-1.25 1.25V53h-5V24.25c0-.69-.56-1.25-1.25-1.25h-7.5c-.691 0-1.25.56-1.25 1.25V53h-5V41.75c0-.69-.56-1.25-1.25-1.25h-7.5c-.69 0-1.25.56-1.25 1.25V53H1.25a1.25 1.25 0 1 0 0 2.5h57.5a1.25 1.25 0 1 0 0-2.5ZM10 53H5V43h5v10Zm15 0h-5V25.5h5V53Zm15 0h-5V28h5v25Zm15 0h-5V18h5v35Z"/><path d="M3.75 33c.305 0 .612-.111.852-.336l18.254-17.037 14.34 3.585c.428.109.877-.02 1.187-.328L52.5 4.768V9.25a1.25 1.25 0 1 0 2.5 0v-7.5C55 1.06 54.44.5 53.75.5h-7.5a1.25 1.25 0 1 0 0 2.5h4.482L37.116 16.616l-14.314-3.578a1.243 1.243 0 0 0-1.154.298l-18.75 17.5A1.25 1.25 0 0 0 3.75 33Z"/></symbol><symbol fill="currentColor" viewBox="0 0 60 61" id="guarantee"><path d="M22.092 25.203a.5.5 0 1 0-.707.707l.707-.707Zm5.848 6.555-.354.354a.5.5 0 0 0 .73-.025l-.377-.329Zm9.058-9.593a.5.5 0 0 0-.753-.658l.753.658ZM22.083 5.906l.092-.491-.092.491Zm4.327-1.159.325.38-.325-.38ZM16.24 9.28l.47.166-.47-.166Zm-3.168 3.168.166.471-.166-.471ZM9.698 18.29l-.492.092.492-.092Zm-1.16 4.327.38.325-.38-.325Zm0 6.748.38-.325-.38.325Zm1.16 4.326-.492-.092.492.092Zm3.374 5.844.166-.471-.166.471Zm3.167 3.167.472-.166-.472.166Zm5.844 3.374-.092-.491.092.491Zm4.327 1.16-.326.38.326-.38Zm6.747 0 .326.38-.326-.38Zm4.327-1.16.092-.491-.092.491Zm5.844-3.374-.472-.166.472.166Zm3.167-3.167-.166-.471.166.471Zm3.374-5.844-.492.092.492-.092Zm1.16-4.326.379.325-.38-.325Zm0-6.748.379-.325-.38.325Zm-1.16-4.327-.492-.091.492.091Zm-3.374-5.843-.166.471.166-.471ZM43.328 9.28l-.472.166.472-.166Zm-5.844-3.374-.092-.491.092.491Zm-4.327-1.159-.325.38.325-.38ZM6.047 50.861l-.424-.266-.006.01.43.256Zm.355.477-.123-.485.123.485Zm10.7 6.116-.424-.266-.006.01.43.256Zm-.588-.086-.485.123.485-.123Zm38.565-6.507.43-.256-.004-.006-.004-.006-.422.268Zm-.355.477.122-.485-.122.485Zm-10.7 6.116-.434.25.004.006.43-.256Zm.588-.086.485.123-.485-.123Zm1.883-7.447-.485-.123.485.123Zm.782-.466-.123.485.123-.485Zm-32.647.466.485-.123-.485.123Zm-.781-.466.122.485-.122-.485Zm29.915-23.462c0 7.721-6.26 13.98-13.98 13.98v1c8.273 0 14.98-6.707 14.98-14.98h-1Zm-13.98 13.98c-7.722 0-13.982-6.259-13.982-13.98h-1c0 8.273 6.707 14.98 14.981 14.98v-1Zm-13.982-13.98c0-7.722 6.26-13.981 13.981-13.981v-1c-8.274 0-14.98 6.707-14.98 14.98h1Zm13.981-13.981c7.722 0 13.981 6.26 13.981 13.98h1c0-8.273-6.707-14.98-14.98-14.98v1ZM21.384 25.91l6.202 6.202.707-.707-6.201-6.202-.707.707Zm6.932 6.177 8.682-9.922-.753-.658-8.682 9.922.753.659ZM21.99 6.397a5.686 5.686 0 0 0 4.744-1.27l-.65-.76a4.686 4.686 0 0 1-3.91 1.048l-.184.983Zm-5.28 3.05a4.686 4.686 0 0 1 5.28-3.05l.184-.982a5.686 5.686 0 0 0-6.408 3.7l.944.331Zm-3.473 3.472a5.686 5.686 0 0 0 3.473-3.473l-.943-.332a4.686 4.686 0 0 1-2.862 2.862l.332.943Zm-3.049 5.28a4.686 4.686 0 0 1 3.049-5.28l-.332-.943a5.686 5.686 0 0 0-3.7 6.407l.983-.183Zm-1.27 4.744a5.686 5.686 0 0 0 1.27-4.744l-.983.184a4.686 4.686 0 0 1-1.047 3.91l.76.65Zm0 6.098a4.686 4.686 0 0 1 0-6.098l-.76-.65a5.686 5.686 0 0 0 0 7.398l.76-.65Zm1.27 4.743a5.686 5.686 0 0 0-1.27-4.743l-.76.65a4.686 4.686 0 0 1 1.047 3.91l.983.183Zm3.049 5.28a4.686 4.686 0 0 1-3.049-5.28l-.983-.184a5.686 5.686 0 0 0 3.7 6.408l.332-.944Zm3.473 3.473a5.686 5.686 0 0 0-3.473-3.472l-.332.943a4.686 4.686 0 0 1 2.861 2.862l.944-.333Zm5.28 3.049a4.686 4.686 0 0 1-5.28-3.049l-.943.333a5.686 5.686 0 0 0 6.407 3.699l-.184-.983Zm4.744 1.27a5.686 5.686 0 0 0-4.744-1.27l.184.983a4.686 4.686 0 0 1 3.91 1.047l.65-.76Zm6.097 0a4.686 4.686 0 0 1-6.097 0l-.65.76a5.686 5.686 0 0 0 7.398 0l-.651-.76Zm4.744-1.27a5.686 5.686 0 0 0-4.744 1.27l.65.76a4.686 4.686 0 0 1 3.91-1.047l.184-.983Zm5.28-3.049a4.686 4.686 0 0 1-5.28 3.049l-.184.983a5.686 5.686 0 0 0 6.407-3.7l-.943-.332Zm3.473-3.472a5.686 5.686 0 0 0-3.473 3.472l.943.333a4.686 4.686 0 0 1 2.862-2.862l-.332-.944Zm3.048-5.28a4.686 4.686 0 0 1-3.048 5.28l.332.943a5.686 5.686 0 0 0 3.7-6.408l-.984.184Zm1.271-4.744a5.686 5.686 0 0 0-1.27 4.743l.982-.184a4.686 4.686 0 0 1 1.048-3.909l-.76-.65Zm0-6.098a4.686 4.686 0 0 1 0 6.098l.76.65a5.686 5.686 0 0 0 0-7.398l-.76.65Zm-1.27-4.744a5.686 5.686 0 0 0 1.27 4.744l.76-.65a4.686 4.686 0 0 1-1.048-3.91l-.983-.183Zm-3.05-5.28a4.686 4.686 0 0 1 3.05 5.28l.982.184a5.686 5.686 0 0 0-3.699-6.407l-.332.943Zm-3.472-3.473a5.686 5.686 0 0 0 3.473 3.473l.332-.943A4.686 4.686 0 0 1 43.8 9.114l-.943.332Zm-5.28-3.048a4.686 4.686 0 0 1 5.28 3.048l.943-.332a5.686 5.686 0 0 0-6.407-3.7l.184.984Zm-4.744-1.271a5.686 5.686 0 0 0 4.744 1.27l-.184-.982a4.686 4.686 0 0 1-3.91-1.048l-.65.76Zm.65-.76a5.686 5.686 0 0 0-7.398 0l.65.76a4.686 4.686 0 0 1 6.098 0l.65-.76Zm-9.68 41.494L16.68 57.188l.846.532 7.124-11.326-.847-.533ZM6.47 51.127l7.09-11.302-.847-.531-7.09 11.301.847.532Zm10.528 6.118-1.883-7.447-.97.246 1.884 7.447.97-.245Zm-3.272-8.275L6.28 50.853l.245.97 7.447-1.883-.245-.97Zm-8.109 1.635a.822.822 0 0 0 .907 1.218l-.245-.97a.178.178 0 0 1 .197.264l-.859-.512Zm11.055 6.593a.178.178 0 0 1 .326.047l-.97.246a.822.822 0 0 0 1.503.22l-.859-.513ZM37.05 46.327l6.54 11.376.867-.498-6.54-11.377-.867.498Zm18.451 4.266-7.529-11.837-.843.536 7.528 11.837.844-.536ZM45.097 57.49l1.883-7.447-.97-.245-1.883 7.447.97.245Zm2.057-7.551 7.447 1.883.245-.97L47.4 48.97l-.245.97Zm7.496 1.177a.178.178 0 0 1 .196-.264l-.245.97a.822.822 0 0 0 .907-1.218l-.858.512ZM43.594 57.71a.822.822 0 0 0 1.503-.22l-.97-.245a.178.178 0 0 1 .326-.047l-.859.512Zm3.386-7.666a.144.144 0 0 1 .174-.104l.245-.97a1.144 1.144 0 0 0-1.389.828l.97.246Zm-31.865-.245a1.144 1.144 0 0 0-1.389-.829l.245.97a.144.144 0 0 1 .175.104l.97-.245Z"/></symbol><symbol fill="currentColor" viewBox="0 0 41 40" id="hotline"><g clip-path="url(#aqa)"><path d="M29 30.132v3.914a2.604 2.604 0 0 1-.848 1.933 2.615 2.615 0 0 1-2.003.676 25.903 25.903 0 0 1-11.281-4.005 25.466 25.466 0 0 1-7.844-7.828A25.787 25.787 0 0 1 3.01 13.51a2.605 2.605 0 0 1 1.547-2.621 2.621 2.621 0 0 1 1.054-.223h3.922a2.618 2.618 0 0 1 2.614 2.244c.166 1.253.473 2.483.915 3.666a2.604 2.604 0 0 1-.588 2.753l-1.66 1.657a20.896 20.896 0 0 0 7.844 7.828l1.66-1.657a2.616 2.616 0 0 1 2.758-.587c1.186.442 2.419.748 3.674.913a2.615 2.615 0 0 1 2.248 2.649Z" stroke="#0A91D1" stroke-linecap="round" stroke-linejoin="round"/><path d="M36.132 8.38a8.38 8.38 0 0 1-.272 3.896 8.5 8.5 0 0 1-6.738 5.87 8.38 8.38 0 0 1-3.896-.273l-5.316 2.8.95-5.933a8.38 8.38 0 0 1-1.503-3.604 8.5 8.5 0 0 1 3.406-8.262 8.38 8.38 0 0 1 3.604-1.504l.493-.08a8.48 8.48 0 0 1 9.19 6.597l.082.493Z" stroke="#0A91D1" stroke-linecap="round" stroke-linejoin="round"/><path d="M24.579 10.121a.79.79 0 1 1-1.579 0 .79.79 0 0 1 1.579 0ZM28.123 10.121a.79.79 0 1 1-1.58 0 .79.79 0 0 1 1.58 0ZM31.667 10.121a.79.79 0 1 1-1.58 0 .79.79 0 0 1 1.58 0Z"/></g><defs><clipPath id="aqa"><path transform="translate(.332)" d="M0 0h40v40H0z"/></clipPath></defs></symbol><symbol fill="currentColor" viewBox="0 0 60 60" id="instructions"><path fill-rule="evenodd" clip-rule="evenodd" d="M42 3.5a8.5 8.5 0 0 0-8.5 8.502 8.5 8.5 0 1 0 17 0A8.501 8.501 0 0 0 42 3.5Zm-6.175 1.281A9.462 9.462 0 0 1 42 2.501c5.247 0 9.5 4.254 9.5 9.501a9.488 9.488 0 0 1-3.75 7.565v32.492a3.28 3.28 0 0 1-3.28 3.28H16.92a3.28 3.28 0 0 1-3.28-3.28V49.67H8.743a3.281 3.281 0 0 1-3.281-3.28V8.06c0-1.811 1.469-3.28 3.28-3.28h27.083Zm-1.006 1a9.466 9.466 0 0 0-2.319 6.221c0 4.045 2.527 7.5 6.089 8.871a.506.506 0 0 0-.017.127v25.39a2.28 2.28 0 0 1-2.28 2.281H8.741a2.281 2.281 0 0 1-2.28-2.28V8.06c0-1.259 1.021-2.28 2.28-2.28H34.82Zm4.753 15.41v25.2a3.28 3.28 0 0 1-3.28 3.28H14.64v2.388a2.28 2.28 0 0 0 2.28 2.28h27.55a2.28 2.28 0 0 0 2.28-2.28V20.233A9.454 9.454 0 0 1 42 21.504a9.511 9.511 0 0 1-2.428-.313ZM42 11.502a.5.5 0 0 1 .5.5V16.5a.5.5 0 1 1-1 0v-4.498a.5.5 0 0 1 .5-.5Zm-28.476 2.1a.5.5 0 0 1 .5-.5H30.01a.5.5 0 0 1 .5.5v4.45a.5.5 0 0 1-.5.5H14.024a.5.5 0 0 1-.5-.5v-4.45Zm1 .5v3.45H29.51v-3.45H14.524Zm-.999 9.723a.5.5 0 0 1 .5-.5h17.986a.5.5 0 1 1 0 1H14.025a.5.5 0 0 1-.5-.5Zm0 4.996a.5.5 0 0 1 .5-.5h17.986a.5.5 0 0 1 0 1H14.025a.5.5 0 0 1-.5-.5Zm0 4.998a.5.5 0 0 1 .5-.5h17.986a.5.5 0 0 1 0 1H14.025a.5.5 0 0 1-.5-.5Zm0 4.997a.5.5 0 0 1 .5-.5h17.986a.5.5 0 0 1 0 1H14.025a.5.5 0 0 1-.5-.5Z"/><path d="M43 9a1 1 0 1 1-2 0 1 1 0 0 1 2 0Z"/></symbol><symbol fill="currentColor" viewBox="0 0 43 44" id="loader"><path d="M18.93 12.33v20.185c0 1.425.898 2.444 2.208 2.444 1.24 0 2.209-1.019 2.209-2.444V12.33c0-1.425-.969-2.444-2.209-2.444-1.31 0-2.208 1.019-2.208 2.444Z"/><path d="M28.872 5.196c0 .92.55 1.532 1.38 2.145 4.834 3.257 7.593 8.56 7.593 14.369 0 4.896-1.727 9.272-4.974 12.536-3.108 3.158-7.323 4.997-11.74 4.997s-8.702-1.84-11.809-4.997c-3.177-3.264-4.975-7.64-4.975-12.536 0-5.81 2.76-11.112 7.664-14.369.83-.613 1.38-1.226 1.38-2.145 0-1.326-1.108-2.039-2.07-2.039-.418 0-.759 0-1.518.506C3.658 7.74 0 14.37 0 21.603 0 27.618 2.209 33.12 6.145 36.99c3.936 3.87 9.252 6.016 14.986 6.016s11.12-2.138 14.986-6.016c3.937-4.076 6.076-9.479 6.076-15.387 0-7.234-3.658-13.863-9.733-17.94-.76-.506-1.101-.506-1.52-.506-1.177 0-2.075.813-2.075 2.039"/><path d="M18.31 2.85c0 1.633 1.24 2.959 2.828 2.959 1.589 0 2.829-1.326 2.829-2.958 0-1.525-1.31-2.851-2.829-2.851-1.519 0-2.829 1.326-2.829 2.85Z"/></symbol><symbol fill="currentColor" viewBox="0 0 158 44" id="logo"><path d="M18.93 13.069v20.184c0 1.425.898 2.444 2.208 2.444 1.24 0 2.209-1.019 2.209-2.444V13.069c0-1.426-.969-2.445-2.209-2.445-1.31 0-2.208 1.019-2.208 2.444Z"/><path d="M28.872 5.934c0 .92.55 1.532 1.38 2.145 4.834 3.257 7.593 8.56 7.593 14.369 0 4.896-1.727 9.273-4.974 12.537-3.108 3.157-7.323 4.996-11.74 4.996s-8.702-1.839-11.809-4.996c-3.177-3.264-4.975-7.64-4.975-12.537 0-5.809 2.76-11.112 7.664-14.369.83-.613 1.38-1.226 1.38-2.145 0-1.326-1.108-2.038-2.07-2.038-.418 0-.759 0-1.518.506C3.658 8.479 0 15.107 0 22.34c0 6.015 2.209 11.518 6.145 15.388 3.936 3.87 9.252 6.015 14.986 6.015s11.12-2.138 14.986-6.015c3.937-4.077 6.076-9.48 6.076-15.388 0-7.234-3.658-13.863-9.733-17.94-.76-.505-1.101-.505-1.52-.505-1.177 0-2.075.812-2.075 2.038"/><path d="M18.31 3.59c0 1.631 1.24 2.957 2.828 2.957 1.589 0 2.829-1.326 2.829-2.958 0-1.525-1.31-2.85-2.829-2.85-1.519 0-2.829 1.325-2.829 2.85ZM51.39 13.375c-.28 0-.412.107-.412.413v19.059c0 .306.14.506.411.506h3.177c.28 0 .342-.2.342-.506V13.788c0-.306-.21-.413-.342-.413H51.39ZM59.604 13.375c-.28 0-.481.207-.481.413v19.158c0 .207.209.407.48.407h3.108c.279 0 .48-.1.48-.407V17.252c0-.066.047-.1.14-.1h4.215c3.386 0 4.626 1.22 4.626 4.69v11.111c0 .307.14.407.411.407h3.108c.278 0 .41-.1.41-.407V20.93c0-4.89-2.967-7.54-8.353-7.54h-8.151l.007-.015ZM80.526 13.375h5.518c6.841 0 10.778 3.67 10.778 9.985 0 3.67-1.45 9.986-11.19 9.986h-5.106a.394.394 0 0 1-.418-.407V13.781c0-.207.14-.406.418-.406Zm3.588 15.9c0 .1.07.208.14.208h2.626c3.658 0 5.734-2.238 5.734-6.116 0-3.877-2.07-6.115-5.665-6.115H84.26c-.07 0-.14.1-.14.2v11.824h-.006ZM99.448 23.467c0 3.464.969 6.115 2.899 7.847 1.797 1.632 4.285 2.552 7.524 2.552 1.728 0 4.006-.406 5.246-.92.279-.1.412-.206.412-.513l-.07-2.85c0-.207 0-.407-.209-.514-.07-.1-.202-.1-.342 0-1.658.713-3.246 1.02-4.765 1.02-3.936 0-6.354-1.832-6.493-4.997h11.809c.341 0 .62-.1.69-.206.209-.307.278-.713.278-2.246 0-5.915-3.246-9.785-8.284-9.785-5.037 0-8.701 4.283-8.701 10.598m8.562-6.928c1.24 0 2.348.406 3.177 1.226.829.92 1.31 2.245 1.31 3.67v.1h-8.974c.14-3.057 1.93-4.996 4.487-4.996ZM119.131 19.184c0 3.157 1.588 4.996 5.455 5.908l2.278.613c2 .406 2.627 1.02 2.627 2.138 0 1.426-1.45 2.345-4.006 2.345-2.829 0-4.836-.713-5.797-1.126-.139-.1-.279-.1-.348 0-.14.107-.14.207-.14.306l-.069 2.958c0 .407.069.514.55.713 1.101.306 3.518.813 5.316.813 7.455 0 8.562-3.977 8.562-6.315 0-2.958-1.658-4.69-5.385-5.602l-1.867-.506c-2.55-.613-3.108-1.426-3.108-2.652 0-1.119.899-2.345 3.379-2.345 1.659 0 3.937.407 5.386.713.139.1.341.1.488 0 .069-.1.069-.206.069-.306l.07-2.751c0-.407-.279-.506-.55-.613-1.241-.307-3.526-.613-5.456-.613-4.556 0-7.454 2.444-7.454 6.322ZM137.357 13.375c-.272 0-.412.107-.412.413v19.059c0 .306.14.506.412.506h3.177c.271 0 .418-.2.418-.506V13.788c0-.306-.209-.413-.418-.413h-3.177ZM144.4 13.375c-.209 0-.348.107-.348.413v2.951c0 .207.139.413.348.413h4.487c.07 0 .139.1.139.1v15.694c0 .307.209.407.349.407h3.316c.209 0 .342-.1.342-.407V17.252c0-.1.069-.1.139-.1h4.487c.202 0 .341-.206.341-.413v-2.95c0-.307-.139-.414-.341-.414H144.4Z"/></symbol><symbol fill="currentColor" viewBox="0 0 25 24" id="loop"><path d="M11.3 19.198a8.4 8.4 0 1 0 0-16.8 8.4 8.4 0 0 0 0 16.8ZM23.3 22.801l-5.4-5.4" stroke="#9DD3ED" stroke-width="1.2" stroke-linecap="round" stroke-linejoin="round"/></symbol><symbol fill="currentColor" viewBox="0 0 24 24" id="magnifying-glass"><path d="M10.798 19.198a8.4 8.4 0 1 0 0-16.8 8.4 8.4 0 0 0 0 16.8ZM22.799 22.801l-5.998-6M6 10.8h9.6M10.8 6v9.6"/></symbol><symbol fill="currentColor" viewBox="0 0 24 24" id="mail"><path d="M4 4h16c1.1 0 2 .9 2 2v12c0 1.1-.9 2-2 2H4c-1.1 0-2-.9-2-2V6c0-1.1.9-2 2-2Z"/><path d="m22 6-10 7L2 6"/></symbol><symbol fill="currentColor" viewBox="0 0 60 60" id="message-square"><path fill-rule="evenodd" clip-rule="evenodd" d="M21.827 2.75a4.27 4.27 0 0 1 3.02-1.25H51.23a4.27 4.27 0 0 1 4.27 4.27v30.153a.5.5 0 0 1-.854.353l-7.392-7.392h-6.831V47.23a4.27 4.27 0 0 1-4.27 4.27H13.747l-7.392 7.392a.5.5 0 0 1-.854-.354V28.385a4.27 4.27 0 0 1 4.27-4.27h10.807V5.77c0-1.132.45-2.218 1.25-3.019Zm-1.22 22.365H9.768a3.27 3.27 0 0 0-3.269 3.27V57.33l6.685-6.685a.5.5 0 0 1 .353-.146h22.616a3.27 3.27 0 0 0 3.269-3.27V28.886H24.846a4.27 4.27 0 0 1-4.24-3.77Zm26.854 2.77a.5.5 0 0 1 .354.146l6.685 6.685V5.769A3.27 3.27 0 0 0 51.23 2.5H24.846a3.27 3.27 0 0 0-3.27 3.27v18.845a3.27 3.27 0 0 0 3.27 3.27h22.615ZM26.231 9.621a.5.5 0 0 1 .5-.5h20.73a.5.5 0 1 1 0 1h-20.73a.5.5 0 0 1-.5-.5Zm0 5.445a.5.5 0 0 1 .5-.5h20.73a.5.5 0 1 1 0 1h-20.73a.5.5 0 0 1-.5-.5Zm0 4.9a.5.5 0 0 1 .5-.5h20.73a.5.5 0 1 1 0 1h-20.73a.5.5 0 0 1-.5-.5Z"/><path d="M15.8 38.478a1.633 1.633 0 1 1-3.267 0 1.633 1.633 0 0 1 3.267 0ZM24.51 38.478a1.633 1.633 0 1 1-3.266 0 1.633 1.633 0 0 1 3.267 0ZM33.222 38.478a1.633 1.633 0 1 1-3.267 0 1.633 1.633 0 0 1 3.267 0Z"/></symbol><symbol fill="currentColor" viewBox="0 0 24 24" id="odnoklassniki"><path d="M12 11.945a3.958 3.958 0 0 0 2.799-1.162 3.957 3.957 0 0 0 1.162-2.798 3.957 3.957 0 0 0-1.162-2.799A3.957 3.957 0 0 0 12 4.024a3.957 3.957 0 0 0-2.798 1.162A3.918 3.918 0 0 0 8.04 7.985c0 1.105.451 2.087 1.162 2.798A3.978 3.978 0 0 0 12 11.945Zm-1.264-5.247a1.8 1.8 0 0 1 2.55 0 1.8 1.8 0 0 1 0 2.55 1.8 1.8 0 0 1-2.55 0 1.8 1.8 0 0 1-.53-1.275c0-.496.215-.947.53-1.275Z"/><path d="m17.349 13.547-1.163-1.59a.19.19 0 0 0-.282-.023C14.81 12.87 13.456 13.48 12 13.48c-1.455 0-2.798-.61-3.904-1.546a.209.209 0 0 0-.282.023l-1.162 1.59a.19.19 0 0 0 .022.249 8.374 8.374 0 0 0 3.306 1.613l-2.46 4.333c-.067.124.023.282.159.282h2.403a.17.17 0 0 0 .17-.124l1.714-3.836 1.716 3.836c.022.068.09.124.169.124h2.403c.147 0 .226-.146.158-.282l-2.46-4.333c1.185-.282 2.325-.8 3.306-1.613.147-.068.158-.17.09-.249Z"/></symbol><symbol fill="currentColor" viewBox="0 0 60 60" id="pdf"><path fill-rule="evenodd" clip-rule="evenodd" d="M9.5 2.5v25h41v-15h-8A2.5 2.5 0 0 1 40 10V2.5H9.5Zm33.5 2 5.25 5H43v-5Zm10.5 23V10.357L42.1-.5H9A2.5 2.5 0 0 0 6.5 2v25.5H5A2.5 2.5 0 0 0 2.5 30v20A2.5 2.5 0 0 0 5 52.5h1.5V58A2.5 2.5 0 0 0 9 60.5h42a2.5 2.5 0 0 0 2.5-2.5v-5.5H55a2.5 2.5 0 0 0 2.5-2.5V30a2.5 2.5 0 0 0-2.5-2.5h-1.5Zm-3 25h-41v5h41v-5Zm-45-22v19h49v-19h-49Z"/><path d="M21.32 41.133h-2.96v-1.555h2.96c.516 0 .933-.083 1.25-.25.318-.167.55-.396.696-.687.15-.297.226-.636.226-1.016 0-.36-.075-.695-.226-1.008a1.727 1.727 0 0 0-.696-.765c-.317-.193-.734-.29-1.25-.29h-2.36v9.813H17V34h4.32c.88 0 1.628.156 2.242.469.62.307 1.092.734 1.415 1.281.322.542.484 1.161.484 1.86 0 .734-.162 1.364-.484 1.89-.323.526-.795.93-1.415 1.21-.614.282-1.361.423-2.242.423ZM30.523 45.375h-2.43l.016-1.555h2.414c.704 0 1.292-.153 1.766-.46.48-.308.839-.748 1.078-1.32.245-.574.367-1.256.367-2.048v-.617c0-.615-.07-1.159-.21-1.633a3.2 3.2 0 0 0-.61-1.195 2.553 2.553 0 0 0-.984-.734c-.386-.167-.831-.25-1.336-.25h-2.547V34h2.547c.755 0 1.445.128 2.07.383.625.25 1.164.612 1.617 1.086.459.474.81 1.041 1.055 1.703.245.661.367 1.4.367 2.219v.601c0 .818-.122 1.558-.367 2.219a4.823 4.823 0 0 1-1.055 1.703A4.73 4.73 0 0 1 32.641 45c-.63.25-1.336.375-2.118.375ZM29.18 34v11.375h-1.961V34h1.96ZM39.633 34v11.375h-1.961V34h1.96Zm4.64 4.977v1.554h-5.14v-1.554h5.14ZM44.922 34v1.563h-5.79V34h5.79Z"/></symbol><symbol fill="currentColor" viewBox="0 0 20 21" id="phone"><path d="M18.333 14.6v2.5a1.666 1.666 0 0 1-1.816 1.667 16.492 16.492 0 0 1-7.192-2.559 16.251 16.251 0 0 1-5-5 16.492 16.492 0 0 1-2.558-7.225 1.667 1.667 0 0 1 1.658-1.816h2.5A1.667 1.667 0 0 1 7.592 3.6c.105.8.3 1.586.583 2.342A1.667 1.667 0 0 1 7.8 7.7L6.742 8.758a13.334 13.334 0 0 0 5 5L12.8 12.7a1.667 1.667 0 0 1 1.758-.375c.756.282 1.542.478 2.342.583a1.667 1.667 0 0 1 1.433 1.692Z"/></symbol><symbol fill="currentColor" viewBox="0 0 40 41" id="russia"><path d="M0 7.167V33.832h40V7.166H0Z"/><path d="M40 7.167H0v26.667h40V7.167Z"/><path d="M40 7.167H0v8.888h40V7.167Z"/><path d="M40 24.944H0v8.889h40v-8.889Z"/></symbol><symbol fill="currentColor" viewBox="0 0 24 24" id="rutube"><path d="M14.173 11.907H8.726V9.725h5.447c.319 0 .54.056.65.154.112.098.18.28.18.546v.783c0 .28-.068.462-.18.56-.11.098-.332.14-.65.14Zm.374-4.24h-8.13V17h2.31v-3.036h4.256L15.003 17h2.587l-2.227-3.05c.821-.124 1.19-.378 1.494-.798.304-.42.457-1.091.457-1.987v-.7c0-.531-.056-.951-.153-1.273a2.127 2.127 0 0 0-.498-.853 2.246 2.246 0 0 0-.857-.518c-.333-.098-.748-.154-1.259-.154ZM19.365 7.667a1.775 1.775 0 1 0 0-3.55 1.775 1.775 0 0 0 0 3.55Z"/></symbol><symbol fill="currentColor" viewBox="0 0 60 60" id="schedule"><path fill-rule="evenodd" clip-rule="evenodd" d="M10.5 4A1.5 1.5 0 0 1 12 2.5h4A1.5 1.5 0 0 1 17.5 4v1.5H36V4a1.5 1.5 0 0 1 1.5-1.5h4A1.5 1.5 0 0 1 43 4v1.5h5.5A2.5 2.5 0 0 1 51 8v27.188c3.298 2.02 5.5 5.659 5.5 9.812 0 6.351-5.149 11.5-11.5 11.5-4.36 0-8.152-2.426-10.102-6H5A2.5 2.5 0 0 1 2.5 48V8A2.5 2.5 0 0 1 5 5.5h5.5V4Zm0 2.5H5A1.5 1.5 0 0 0 3.5 8v7.5H50V8a1.5 1.5 0 0 0-1.5-1.5H43V11a1.5 1.5 0 0 1-1.5 1.5h-4A1.5 1.5 0 0 1 36 11V6.5H17.5V11a1.5 1.5 0 0 1-1.5 1.5h-4a1.5 1.5 0 0 1-1.5-1.5V6.5Zm39.5 10H3.5V48A1.5 1.5 0 0 0 5 49.5h29.414A11.465 11.465 0 0 1 33.5 45c0-6.351 5.149-11.5 11.5-11.5 1.791 0 3.488.41 5 1.141V16.5Zm-38-13a.5.5 0 0 0-.5.5v7a.5.5 0 0 0 .5.5h4a.5.5 0 0 0 .5-.5V4a.5.5 0 0 0-.5-.5h-4Zm25.5 0a.5.5 0 0 0-.5.5v7a.5.5 0 0 0 .5.5h4a.5.5 0 0 0 .5-.5V4a.5.5 0 0 0-.5-.5h-4ZM9.5 23a1.5 1.5 0 0 1 1.5-1.5h6a1.5 1.5 0 0 1 1.5 1.5v6a1.5 1.5 0 0 1-1.5 1.5h-6A1.5 1.5 0 0 1 9.5 29v-6Zm1.5-.5a.5.5 0 0 0-.5.5v6a.5.5 0 0 0 .5.5h6a.5.5 0 0 0 .5-.5v-6a.5.5 0 0 0-.5-.5h-6Zm11.5.5a1.5 1.5 0 0 1 1.5-1.5h6a1.5 1.5 0 0 1 1.5 1.5v6a1.5 1.5 0 0 1-1.5 1.5h-6a1.5 1.5 0 0 1-1.5-1.5v-6Zm1.5-.5a.5.5 0 0 0-.5.5v6a.5.5 0 0 0 .5.5h6a.5.5 0 0 0 .5-.5v-6a.5.5 0 0 0-.5-.5h-6Zm11.5.5a1.5 1.5 0 0 1 1.5-1.5h6a1.5 1.5 0 0 1 1.5 1.5v6a1.5 1.5 0 0 1-1.5 1.5h-6a1.5 1.5 0 0 1-1.5-1.5v-6Zm1.5-.5a.5.5 0 0 0-.5.5v6a.5.5 0 0 0 .5.5h6a.5.5 0 0 0 .5-.5v-6a.5.5 0 0 0-.5-.5h-6Zm8 12c-5.799 0-10.5 4.701-10.5 10.5A10.5 10.5 0 0 0 45 55.5c5.799 0 10.5-4.701 10.5-10.5A10.496 10.496 0 0 0 45 34.5ZM9.5 36a1.5 1.5 0 0 1 1.5-1.5h6a1.5 1.5 0 0 1 1.5 1.5v6a1.5 1.5 0 0 1-1.5 1.5h-6A1.5 1.5 0 0 1 9.5 42v-6Zm1.5-.5a.5.5 0 0 0-.5.5v6a.5.5 0 0 0 .5.5h6a.5.5 0 0 0 .5-.5v-6a.5.5 0 0 0-.5-.5h-6Zm11.5.5a1.5 1.5 0 0 1 1.5-1.5h6a1.5 1.5 0 0 1 1.5 1.5v6a1.5 1.5 0 0 1-1.5 1.5h-6a1.5 1.5 0 0 1-1.5-1.5v-6Zm1.5-.5a.5.5 0 0 0-.5.5v6a.5.5 0 0 0 .5.5h6a.5.5 0 0 0 .5-.5v-6a.5.5 0 0 0-.5-.5h-6Zm21 3a.5.5 0 0 1 .5.5v5.777l4.834 4.351a.5.5 0 1 1-.669.744l-5-4.5A.5.5 0 0 1 44.5 45v-6a.5.5 0 0 1 .5-.5Z"/></symbol><symbol fill="currentColor" viewBox="0 0 24 24" id="search"><path d="M10.8 19.198a8.4 8.4 0 1 0 0-16.8 8.4 8.4 0 0 0 0 16.8ZM22.8 22.801l-5.4-5.4"/></symbol><symbol fill="currentColor" viewBox="0 0 24 24" id="telegram"><path fill-rule="evenodd" clip-rule="evenodd" d="M4.807 11.79c3.887-1.693 6.48-2.81 7.776-3.35 3.703-1.54 4.472-1.807 4.974-1.816.11-.002.357.026.517.155.134.11.171.257.19.361.017.104.04.34.022.525-.201 2.108-1.07 7.225-1.511 9.586-.187 1-.555 1.334-.911 1.367-.775.071-1.363-.512-2.112-1.003-1.174-.77-1.837-1.248-2.976-1.999-1.316-.867-.463-1.344.287-2.123.196-.204 3.608-3.308 3.674-3.589.008-.035.016-.166-.062-.236-.078-.069-.193-.045-.276-.026-.118.026-1.992 1.265-5.624 3.717-.532.365-1.014.543-1.446.534-.476-.01-1.392-.27-2.073-.49-.835-.272-1.498-.415-1.44-.876.03-.24.36-.486.991-.737Z"/></symbol><symbol fill="currentColor" viewBox="0 0 20 20" id="tg"><path d="M18.674 0 .663 8.212C.221 8.477 0 8.874 0 9.536c0 .53.331 1.06.663 1.193l4.42 1.854 1.878 6.092s.11.265.221.265h.221s.221 0 .332-.132l2.541-2.517 3.536 3.312c.332.265.663.397.995.397h.552c.553-.265.884-.795 1.105-1.457L20 1.589c0-.397 0-.927-.331-1.192-.332-.265-.663-.397-1.105-.265l.11-.132ZM7.404 12.715v2.517l-1.106-3.444 5.746-4.106-4.42 4.636-.22.397Zm.662 4.371v-2.914l1.547 1.325-1.547 1.59Zm11.05-15.761-3.536 16.82c0 .266-.22.53-.442.663h-.663l-6.077-5.563 7.956-8.477c.22-.132.22-.53 0-.794-.11-.265-.442-.265-.663-.133l-10.277 7.55-4.42-1.855 18.012-8.344.11.133Z"/></symbol><symbol fill="currentColor" viewBox="0 0 24 24" id="vk"><path d="M12.77 16.931c-5.475 0-8.598-3.753-8.728-10h2.743c.09 4.585 2.112 6.527 3.713 6.927V6.931h2.583v3.954c1.582-.17 3.243-1.972 3.804-3.954h2.582c-.43 2.443-2.232 4.245-3.513 4.985 1.281.601 3.333 2.173 4.114 5.015h-2.843c-.61-1.902-2.132-3.373-4.144-3.573v3.573h-.31Z"/></symbol><symbol fill="currentColor" viewBox="0 0 24 24" id="yandex-zen"><path d="M21.526 11.836a.174.174 0 0 0-.165-.171c-3.28-.125-5.276-.543-6.672-1.94-1.4-1.399-1.816-3.396-1.94-6.683a.172.172 0 0 0-.172-.166h-.383a.174.174 0 0 0-.17.166c-.125 3.285-.542 5.284-1.941 6.684-1.398 1.397-3.393 1.814-6.672 1.938a.172.172 0 0 0-.166.172v.383c0 .09.074.167.166.17 3.28.125 5.275.543 6.672 1.94 1.396 1.396 1.813 3.388 1.939 6.662a.172.172 0 0 0 .171.165h.384a.174.174 0 0 0 .171-.165c.126-3.274.543-5.266 1.94-6.662 1.397-1.398 3.392-1.815 6.671-1.94a.172.172 0 0 0 .166-.17v-.383h.002Z"/></symbol><symbol fill="currentColor" viewBox="0 0 24 24" id="youtube"><path fill-rule="evenodd" clip-rule="evenodd" d="M20.878 6.067c.308.31.53.696.642 1.119.415 1.56.415 4.814.415 4.814s0 3.254-.415 4.814a2.497 2.497 0 0 1-1.757 1.768C18.21 19 12 19 12 19s-6.21 0-7.763-.418a2.498 2.498 0 0 1-1.757-1.768C2.064 15.254 2.064 12 2.064 12s0-3.254.416-4.814a2.497 2.497 0 0 1 1.757-1.768C5.79 5 12 5 12 5s6.21 0 7.763.418c.422.115.807.339 1.115.649ZM15.16 12 9.968 9.045v5.91L15.16 12Z"/></symbol></svg>