<svg width="48" height="48" viewBox="0 0 48 48" fill="none" xmlns="http://www.w3.org/2000/svg">
<mask id="mask0_3865_4949" style="mask-type:alpha" maskUnits="userSpaceOnUse" x="0" y="0" width="48" height="48">
<rect width="48" height="48" fill="#D9D9D9"/>
</mask>
<g mask="url(#mask0_3865_4949)">
<path d="M11.4925 38.498C10.0822 37.0813 8.98083 35.4523 8.1885 33.611C7.39617 31.7697 7 29.866 7 27.9C7 25.9283 7.37767 23.972 8.133 22.031C8.888 20.09 10.1078 18.2772 11.7925 16.5925C13.0105 15.3745 14.5355 14.3712 16.3675 13.5825C18.1995 12.7942 20.2745 12.1937 22.5925 11.781C24.9105 11.368 27.4367 11.1275 30.171 11.0595C32.9057 10.9918 35.7743 11.0797 38.777 11.323C38.9923 14.1897 39.066 16.975 38.998 19.679C38.93 22.3827 38.6935 24.9037 38.2885 27.242C37.8832 29.5807 37.2915 31.6865 36.5135 33.5595C35.7352 35.4325 34.7332 36.9818 33.5075 38.2075C31.8562 39.8718 30.0902 41.0867 28.2095 41.852C26.3288 42.6173 24.424 43 22.495 43C20.4727 43 18.4858 42.6038 16.5345 41.8115C14.5832 41.0192 12.9025 39.9147 11.4925 38.498ZM15.977 38.169C16.982 38.8 18.0442 39.2628 19.1635 39.5575C20.2828 39.8525 21.395 40 22.5 40C24.042 40 25.5672 39.6948 27.0755 39.0845C28.5842 38.4742 30.0153 37.4793 31.369 36.1C31.9667 35.5 32.5727 34.6583 33.187 33.575C33.801 32.4917 34.3322 31.075 34.7805 29.325C35.2288 27.575 35.5692 25.4583 35.8015 22.975C36.0338 20.4917 36.0795 17.5333 35.9385 14.1C34.3052 14.0333 32.457 14.0147 30.394 14.044C28.3313 14.0737 26.2737 14.2417 24.221 14.548C22.1687 14.8543 20.229 15.3345 18.402 15.9885C16.575 16.6422 15.0973 17.5332 13.969 18.6615C12.482 20.1488 11.4487 21.6547 10.869 23.179C10.2897 24.7033 10 26.1488 10 27.5155C10 29.4052 10.3687 31.1142 11.106 32.6425C11.843 34.1705 12.6102 35.305 13.4075 36.046C14.5255 33.5333 16.0967 31.1225 18.121 28.8135C20.1453 26.5045 22.7102 24.4898 25.8155 22.7695C23.4665 24.8182 21.4548 27.0682 19.7805 29.5195C18.1062 31.9705 16.8383 34.8537 15.977 38.169Z" fill="white"/>
</g>
</svg>
