<svg width="48" height="48" viewBox="0 0 48 48" fill="none" xmlns="http://www.w3.org/2000/svg">
<mask id="mask0_3865_4965" style="mask-type:alpha" maskUnits="userSpaceOnUse" x="0" y="0" width="48" height="48">
<rect width="48" height="48" fill="#D9D9D9"/>
</mask>
<g mask="url(#mask0_3865_4965)">
<path d="M29.6925 43.019C28.0822 43.019 26.7308 42.4697 25.6385 41.371C24.5462 40.2723 24 38.9178 24 37.3075C24 36.4538 24.1847 35.6552 24.554 34.9115C24.923 34.1678 25.4307 33.5255 26.077 32.9845V27.6155C26.077 26.6178 26.4302 25.7658 27.1365 25.0595C27.8428 24.3532 28.6948 24 29.6925 24C30.6898 24 31.5417 24.3532 32.248 25.0595C32.9543 25.7658 33.3075 26.6178 33.3075 27.6155V32.9845C33.9332 33.5255 34.4358 34.1678 34.8155 34.9115C35.1948 35.6552 35.3845 36.4538 35.3845 37.3075C35.3845 38.9178 34.8332 40.2723 33.7305 41.371C32.6282 42.4697 31.2822 43.019 29.6925 43.019ZM26.3845 37.3075H33C33 36.5538 32.7948 35.9365 32.3845 35.4555C31.9742 34.9748 31.487 34.5203 30.923 34.092V27.6155C30.923 27.2718 30.8038 26.9808 30.5655 26.7425C30.3268 26.5038 30.0358 26.3845 29.6925 26.3845C29.3488 26.3845 29.0577 26.5038 28.819 26.7425C28.5807 26.9808 28.4615 27.2718 28.4615 27.6155V34.092C27.8768 34.5203 27.3845 34.9748 26.9845 35.4555C26.5845 35.9365 26.3845 36.5538 26.3845 37.3075ZM35.8655 32.077V29.7115H41V32.077H35.8655ZM35.8655 27.327V24.9615H43V27.327H35.8655ZM40.396 19.6155H37.2845C36.3665 16.7975 34.707 14.4903 32.306 12.694C29.9047 10.898 27.136 10 24 10C20.1 10 16.7917 11.3583 14.075 14.075C11.3583 16.7917 10 20.1 10 24C10 26.605 10.641 28.9685 11.923 31.0905C13.205 33.2122 14.8973 34.8678 17 36.0575V30H20V41H9V38H14.6615C12.3515 36.5 10.497 34.5288 9.098 32.0865C7.69933 29.6442 7 26.9487 7 24C7 21.641 7.44617 19.4308 8.3385 17.3695C9.23083 15.3078 10.4437 13.5103 11.977 11.977C13.5103 10.4437 15.3078 9.23083 17.3695 8.3385C19.4308 7.44617 21.641 7 24 7C27.9537 7 31.4338 8.19033 34.4405 10.571C37.4468 12.952 39.432 15.9668 40.396 19.6155Z" fill="white"/>
</g>
</svg>
