<svg width="48" height="48" viewBox="0 0 48 48" fill="none" xmlns="http://www.w3.org/2000/svg">
<mask id="mask0_3865_4958" style="mask-type:alpha" maskUnits="userSpaceOnUse" x="0" y="0" width="48" height="48">
<rect width="48" height="48" fill="#D9D9D9"/>
</mask>
<g mask="url(#mask0_3865_4958)">
<path d="M37.1534 17.531C36.3068 18.3744 35.3348 19.0147 34.2374 19.452C33.1404 19.889 32.0341 20.1075 30.9184 20.1075C29.8031 20.1075 28.7076 19.8954 27.6319 19.471C26.5566 19.0467 25.5944 18.4 24.7454 17.531L20.9954 13.781C20.4481 13.2297 19.8276 12.8162 19.1339 12.5405C18.4403 12.2649 17.7284 12.127 16.9984 12.127C16.2684 12.127 15.5568 12.2649 14.8634 12.5405C14.1704 12.8162 13.5504 13.2297 13.0034 13.781L9.59944 17.1655L7.46094 15.027L10.8454 11.623C11.6974 10.7744 12.6596 10.1379 13.7319 9.71353C14.8046 9.2892 15.8929 9.07703 16.9969 9.07703C18.1013 9.07703 19.1819 9.2892 20.2389 9.71353C21.2963 10.1379 22.2511 10.7744 23.1034 11.623L26.8534 15.373C27.4361 15.9594 28.0734 16.39 28.7654 16.665C29.4574 16.9397 30.1751 17.077 30.9184 17.077C31.6621 17.077 32.3814 16.9392 33.0764 16.6635C33.7714 16.3879 34.4111 15.9577 34.9954 15.373L38.3994 11.9885L40.5379 14.127L37.1534 17.531ZM37.1534 26.954C36.3038 27.8027 35.3363 28.4392 34.2509 28.8635C33.1653 29.2879 32.0648 29.5 30.9494 29.5C29.8341 29.5 28.7336 29.2879 27.6479 28.8635C26.5626 28.4392 25.5951 27.8027 24.7454 26.954L20.9954 23.204C20.4481 22.6527 19.8276 22.2392 19.1339 21.9635C18.4403 21.6879 17.7284 21.55 16.9984 21.55C16.2684 21.55 15.5568 21.6879 14.8634 21.9635C14.1704 22.2392 13.5504 22.6527 13.0034 23.204L9.59944 26.5885L7.46094 24.5L10.8454 21.046C11.6974 20.1974 12.6596 19.5609 13.7319 19.1365C14.8046 18.7122 15.8929 18.5 16.9969 18.5C18.1013 18.5 19.1819 18.7122 20.2389 19.1365C21.2963 19.5609 22.2511 20.1974 23.1034 21.046L26.8534 24.796C27.4321 25.3824 28.0653 25.813 28.7529 26.088C29.4403 26.3627 30.1558 26.5 30.8994 26.5C31.6431 26.5 32.3656 26.3622 33.0669 26.0865C33.7683 25.8109 34.4111 25.3807 34.9954 24.796L38.3994 21.4115L40.5379 23.55L37.1534 26.954ZM37.1034 36.377C36.2544 37.2257 35.2953 37.8622 34.2259 38.2865C33.1569 38.7109 32.0648 38.923 30.9494 38.923C29.8341 38.923 28.7334 38.7077 27.6474 38.277C26.5618 37.846 25.5944 37.2062 24.7454 36.3575L20.9454 32.627C20.3981 32.0757 19.7776 31.6622 19.0839 31.3865C18.3903 31.1109 17.6784 30.973 16.9484 30.973C16.2184 30.973 15.5068 31.1109 14.8134 31.3865C14.1204 31.6622 13.5004 32.0757 12.9534 32.627L9.54944 36.0115L7.46094 33.923L10.8454 30.469C11.6951 29.6204 12.6546 28.9839 13.7239 28.5595C14.7936 28.1352 15.8791 27.923 16.9804 27.923C18.0878 27.923 19.1714 28.1352 20.2314 28.5595C21.2918 28.9839 22.2491 29.6204 23.1034 30.469L26.8534 34.219C27.4378 34.8037 28.0774 35.2339 28.7724 35.5095C29.4674 35.7852 30.1868 35.923 30.9304 35.923C31.6738 35.923 32.3914 35.7857 33.0834 35.511C33.7754 35.236 34.4128 34.8054 34.9954 34.219L38.3994 30.8345L40.4879 32.973L37.1034 36.377Z" fill="white"/>
</g>
</svg>
