<svg width="48" height="48" viewBox="0 0 48 48" fill="none" xmlns="http://www.w3.org/2000/svg">
<mask id="mask0_3865_4942" style="mask-type:alpha" maskUnits="userSpaceOnUse" x="0" y="0" width="48" height="48">
<rect width="48" height="48" fill="#D9D9D9"/>
</mask>
<g mask="url(#mask0_3865_4942)">
<path d="M15.0385 31.6925V29.3075H20.423V26.8845H16.846V25.1155H20.423V22.6925H15.0385V20.3075H21.1155C21.6052 20.3075 22.0097 20.4671 22.329 20.7865C22.648 21.1058 22.8075 21.5103 22.8075 22V30C22.8075 30.4896 22.648 30.8941 22.329 31.2135C22.0097 31.5328 21.6052 31.6925 21.1155 31.6925H15.0385ZM27.1925 31.6925C26.6258 31.6925 26.1508 31.5008 25.7675 31.1175C25.3842 30.7341 25.1925 30.2591 25.1925 29.6925V22.3075C25.1925 21.7408 25.3842 21.2658 25.7675 20.8825C26.1508 20.4991 26.6258 20.3075 27.1925 20.3075H30.9615C31.5282 20.3075 32.0032 20.4991 32.3865 20.8825C32.7698 21.2658 32.9615 21.7408 32.9615 22.3075V29.6925C32.9615 30.2591 32.7698 30.7341 32.3865 31.1175C32.0032 31.5008 31.5282 31.6925 30.9615 31.6925H27.1925ZM27.8075 29.3075H30.346C30.423 29.3075 30.4808 29.2883 30.5195 29.25C30.5578 29.2116 30.577 29.154 30.577 29.077V22.923C30.577 22.846 30.5578 22.7883 30.5195 22.75C30.4808 22.7116 30.423 22.6925 30.346 22.6925H27.8075C27.7308 22.6925 27.6732 22.7116 27.6345 22.75C27.5962 22.7883 27.577 22.846 27.577 22.923V29.077C27.577 29.154 27.5962 29.2116 27.6345 29.25C27.6732 29.2883 27.7308 29.3075 27.8075 29.3075ZM24 43C21.641 43 19.4308 42.5538 17.3695 41.6615C15.3078 40.7691 13.5103 39.5563 11.977 38.023C10.4437 36.4897 9.23083 34.6921 8.3385 32.6305C7.44617 30.5691 7 28.359 7 26C7 23.641 7.44617 21.4308 8.3385 19.3695C9.23083 17.3078 10.4437 15.5103 11.977 13.977C13.5103 12.4436 15.3078 11.2308 17.3695 10.3385C19.4308 9.44615 21.641 8.99998 24 8.99998H24.531L21.3155 5.78448L23.423 3.61548L30.3075 10.481L23.4615 17.346L21.354 15.177L24.531 12H24C20.1 12 16.7917 13.3583 14.075 16.075C11.3583 18.7916 10 22.1 10 26C10 29.9 11.3583 33.2083 14.075 35.925C16.7917 38.6416 20.1 40 24 40C27.9 40 31.2083 38.6416 33.925 35.925C36.6417 33.2083 38 29.9 38 26H41C41 28.359 40.5538 30.5691 39.6615 32.6305C38.7692 34.6921 37.5563 36.4897 36.023 38.023C34.4897 39.5563 32.6922 40.7691 30.6305 41.6615C28.5692 42.5538 26.359 43 24 43Z" fill="white"/>
</g>
</svg>
