<svg width="264" height="70" viewBox="0 0 264 70" fill="none" xmlns="http://www.w3.org/2000/svg">
<path d="M31.9941 20.0697V52.9141C31.9941 55.2358 33.489 56.8967 35.6742 56.8967C37.7431 56.8967 39.3509 55.2358 39.3509 52.9141V20.0697C39.3509 17.7491 37.7431 16.0926 35.6742 16.0926C33.489 16.0926 31.9941 17.7491 31.9941 20.0697Z" fill="#0090D0"/>
<path d="M48.5459 8.45958C48.5459 9.9536 49.4656 10.9492 50.8474 11.9449C58.8924 17.2514 63.49 25.8763 63.49 35.3312C63.49 43.2931 60.6166 50.4262 55.2123 55.7338C50.0418 60.8767 43.0297 63.8636 35.6728 63.8636C28.1997 63.8636 21.1919 60.8767 16.0181 55.7338C10.7291 50.4262 7.74047 43.2931 7.74047 35.3312C7.74047 25.8763 12.3392 17.2514 20.4983 11.9449C21.8801 10.9492 22.7998 9.9536 22.7998 8.45958C22.7998 6.30471 20.957 5.14549 19.3502 5.14549C18.6599 5.14549 18.087 5.14549 16.8204 5.96989C6.59244 12.6079 0.5 23.3899 0.5 35.1665C0.5 44.9529 4.17566 53.9082 10.7291 60.2136C17.2825 66.5158 26.1308 70 35.6728 70C45.3279 70 54.1785 66.5158 60.6166 60.2136C67.1711 53.5778 70.7326 44.7871 70.7326 35.1665C70.7326 23.3899 64.6402 12.6079 54.5242 5.96989C53.2587 5.14549 52.6858 5.14549 51.9987 5.14549C50.0418 5.14549 48.5459 6.46827 48.5459 8.45958Z" fill="#0090D0"/>
<path d="M30.9609 4.64454C30.9609 7.29887 33.0287 9.45703 35.6727 9.45703C38.2025 9.45703 40.3855 7.29887 40.3855 4.64454C40.3855 2.15925 38.2025 -3.8147e-06 35.6727 -3.8147e-06C33.0287 -3.8147e-06 30.9609 2.15925 30.9609 4.64454Z" fill="#0090D0"/>
<path d="M86.0213 20.5663C85.5603 20.5663 85.332 20.7376 85.332 21.2327V52.2526C85.332 52.7488 85.5603 53.0792 86.0213 53.0792H91.3103C91.7691 53.0792 91.8821 52.7488 91.8821 52.2526V21.2327C91.8821 20.7376 91.5386 20.5663 91.3103 20.5663H86.0213Z" fill="#0090D0"/>
<path d="M99.699 20.5663C99.2381 20.5663 98.8945 20.9012 98.8945 21.2327V52.4162C98.8945 52.7488 99.2381 53.0792 99.699 53.0792H104.873C105.333 53.0792 105.676 52.9135 105.676 52.4162V26.8729C105.676 26.7082 105.676 26.7082 105.906 26.7082H112.919C118.55 26.7082 120.619 28.6951 120.619 34.3364V52.4162C120.619 52.9135 120.849 53.0792 121.307 53.0792H126.481C126.941 53.0792 127.169 52.9135 127.169 52.4162V32.8424C127.169 24.8827 122.227 20.5663 113.264 20.5663H99.699Z" fill="#0090D0"/>
<path d="M134.529 20.5663H143.72C155.103 20.5663 161.657 26.5424 161.657 36.8228C161.657 42.7956 159.239 53.0792 143.031 53.0792H134.529C134.068 53.0792 133.838 52.7488 133.838 52.4162V21.2327C133.838 20.9012 134.068 20.5663 134.529 20.5663ZM140.505 46.4456C140.505 46.6124 140.621 46.7771 140.736 46.7771H145.104C151.194 46.7771 154.643 43.1304 154.643 36.8228C154.643 30.5218 151.194 26.8729 145.217 26.8729H140.736C140.621 26.8729 140.505 27.0386 140.505 27.2011V46.4456Z" fill="#0090D0"/>
<path d="M166.023 36.9898C166.023 42.6322 167.632 46.9452 170.849 49.762C173.837 52.4164 177.977 53.9104 183.379 53.9104C186.255 53.9104 190.046 53.2452 192.115 52.4164C192.577 52.2528 192.804 52.0838 192.804 51.5854L192.691 46.9452C192.691 46.6115 192.691 46.2789 192.345 46.1121C192.232 45.9474 192.004 45.9474 191.772 46.1121C189.014 47.2735 186.369 47.774 183.84 47.774C177.286 47.774 173.264 44.7893 173.036 39.6442H192.691C193.264 39.6442 193.724 39.4795 193.839 39.3137C194.185 38.8132 194.3 38.1534 194.3 35.6638C194.3 26.041 188.897 19.741 180.508 19.741C171.77 19.741 166.023 26.7095 166.023 36.9898ZM180.276 25.7105C182.345 25.7105 184.182 26.3747 185.564 27.7018C186.943 29.1937 187.748 31.3507 187.748 33.6746V33.8382H172.806C173.036 28.8633 176.022 25.7105 180.276 25.7105Z" fill="#0090D0"/>
<path d="M198.785 30.0249C198.785 35.1656 201.427 38.1526 207.867 39.6444L211.659 40.6412C214.993 41.3053 216.028 42.2965 216.028 44.1221C216.028 46.446 213.613 47.9378 209.361 47.9378C204.647 47.9378 201.314 46.7753 199.707 46.1101C199.473 45.9476 199.245 45.9476 199.13 46.1101C198.899 46.2813 198.899 46.446 198.899 46.6107L198.785 51.4221C198.785 52.0829 198.899 52.252 199.707 52.5846C201.542 53.0797 205.568 53.9084 208.555 53.9084C220.97 53.9084 222.806 47.4395 222.806 43.6259C222.806 38.8123 220.051 35.9944 213.843 34.5037L210.74 33.6749C206.489 32.6792 205.568 31.351 205.568 29.3597C205.568 27.5363 207.066 25.545 211.199 25.545C213.956 25.545 217.753 26.2081 220.164 26.7086C220.396 26.8733 220.738 26.8733 220.97 26.7086C221.085 26.5429 221.085 26.3738 221.085 26.2081L221.199 21.7304C221.199 21.0673 220.738 20.9016 220.278 20.7391C218.213 20.2385 214.415 19.7413 211.199 19.7413C203.613 19.7413 198.785 23.7195 198.785 30.0249Z" fill="#0090D0"/>
<path d="M229.131 20.5663C228.673 20.5663 228.441 20.7376 228.441 21.2327V52.2526C228.441 52.7488 228.673 53.0792 229.131 53.0792H234.42C234.875 53.0792 235.109 52.7488 235.109 52.2526V21.2327C235.109 20.7376 234.764 20.5663 234.42 20.5663H229.131Z" fill="#0090D0"/>
<path d="M240.856 20.5663C240.511 20.5663 240.279 20.7376 240.279 21.2327V26.0408C240.279 26.3745 240.511 26.7082 240.856 26.7082H248.328C248.441 26.7082 248.556 26.8729 248.556 26.8729V52.4162C248.556 52.9135 248.902 53.0792 249.132 53.0792H254.649C254.996 53.0792 255.224 52.9135 255.224 52.4162V26.8729C255.224 26.7082 255.339 26.7082 255.457 26.7082H262.927C263.269 26.7082 263.5 26.3745 263.5 26.0408V21.2327C263.5 20.7376 263.269 20.5663 262.927 20.5663H240.856Z" fill="#0090D0"/>
</svg>
