<svg width="190" height="31" viewBox="0 0 190 31" fill="none" xmlns="http://www.w3.org/2000/svg">
<mask id="mask0_3939_284" style="mask-type:alpha" maskUnits="userSpaceOnUse" x="0" y="0" width="30" height="31">
<rect y="0.5" width="30" height="30" fill="#D9D9D9"/>
</mask>
<g mask="url(#mask0_3939_284)">
<path d="M7.28125 26.75L9.3125 17.9688L2.5 12.0625L11.5 11.2812L15 3L18.5 11.2812L27.5 12.0625L20.6875 17.9688L22.7188 26.75L15 22.0938L7.28125 26.75Z" fill="#FF9900"/>
</g>
<mask id="mask1_3939_284" style="mask-type:alpha" maskUnits="userSpaceOnUse" x="40" y="0" width="30" height="31">
<rect x="40" y="0.5" width="30" height="30" fill="#D9D9D9"/>
</mask>
<g mask="url(#mask1_3939_284)">
<path d="M47.2812 26.75L49.3125 17.9688L42.5 12.0625L51.5 11.2812L55 3L58.5 11.2812L67.5 12.0625L60.6875 17.9688L62.7188 26.75L55 22.0938L47.2812 26.75Z" fill="#FF9900"/>
</g>
<mask id="mask2_3939_284" style="mask-type:alpha" maskUnits="userSpaceOnUse" x="80" y="0" width="30" height="31">
<rect x="80" y="0.5" width="30" height="30" fill="#D9D9D9"/>
</mask>
<g mask="url(#mask2_3939_284)">
<path d="M87.2812 26.75L89.3125 17.9688L82.5 12.0625L91.5 11.2812L95 3L98.5 11.2812L107.5 12.0625L100.688 17.9688L102.719 26.75L95 22.0938L87.2812 26.75Z" fill="#FF9900"/>
</g>
<mask id="mask3_3939_284" style="mask-type:alpha" maskUnits="userSpaceOnUse" x="120" y="0" width="30" height="31">
<rect x="120" y="0.5" width="30" height="30" fill="#D9D9D9"/>
</mask>
<g mask="url(#mask3_3939_284)">
<path d="M127.281 26.75L129.313 17.9688L122.5 12.0625L131.5 11.2812L135 3L138.5 11.2812L147.5 12.0625L140.688 17.9688L142.719 26.75L135 22.0938L127.281 26.75Z" fill="#FF9900"/>
</g>
<mask id="mask4_3939_284" style="mask-type:alpha" maskUnits="userSpaceOnUse" x="160" y="0" width="30" height="31">
<rect x="160" y="0.5" width="30" height="30" fill="#D9D9D9"/>
</mask>
<g mask="url(#mask4_3939_284)">
<path d="M167.281 26.75L169.313 17.9688L162.5 12.0625L171.5 11.2812L175 3L178.5 11.2812L187.5 12.0625L180.688 17.9688L182.719 26.75L175 22.0938L167.281 26.75Z" fill="#FF9900"/>
</g>
</svg>
